# Exported from ProBuilder
# http://www.procore3d.com/probuilder
# 1/12/2019 9:24:58 PM

mtllib ./BRS_SolidWall.mtl
o BRS_SolidWall

g Cube (1)
v 4.81 0 9.885
v -1.19 0 9.885
v 4.81 3 9.885
v -1.19 3 9.885
v -1.19 0 9.635
v 4.81 0 9.635
v -1.19 3 9.635
v 4.81 3 9.635
v -1.19 0 9.885
v -1.19 0 9.76
v -1.19 3 9.76
v -1.19 3 9.885
v -1.19 0 9.76
v -1.19 0 9.635
v -1.19 3 9.635
v -1.19 3 9.76
v 4.81 0 9.635
v 4.81 0 9.76
v 4.81 3 9.76
v 4.81 3 9.635
v 4.81 0 9.76
v 4.81 0 9.885
v 4.81 3 9.885
v 4.81 3 9.76
v 4.81 3 9.885
v -1.19 3 9.885
v -1.19 3 9.76
v 4.81 3 9.76
v -1.19 3 9.76
v -1.19 3 9.635
v 4.81 3 9.635
v 4.81 3 9.76
v 4.81 0 9.635
v -1.19 0 9.635
v -1.19 0 9.76
v 4.81 0 9.76
v -1.19 0 9.76
v -1.19 0 9.885
v 4.81 0 9.885
v 4.81 0 9.76

vn 0 0 1
vn 0 0 1
vn 0 0 1
vn 0 0 1
vn 0 0 -1
vn 0 0 -1
vn 0 0 -1
vn 0 0 -1
vn -1 0 0
vn -1 0 0
vn -1 0 0
vn -1 0 0
vn -1 0 0
vn -1 0 0
vn -1 0 0
vn -1 0 0
vn 1 0 0
vn 1 0 0
vn 1 0 0
vn 1 0 0
vn 1 0 0
vn 1 0 0
vn 1 0 0
vn 1 0 0
vn 0 1 0
vn 0 1 0
vn 0 1 0
vn 0 1 0
vn 0 1 0
vn 0 1 0
vn 0 1 0
vn 0 1 0
vn 0 -1 0
vn 0 -1 0
vn 0 -1 0
vn 0 -1 0
vn 0 -1 0
vn 0 -1 0
vn 0 -1 0
vn 0 -1 0

vt 0 0
vt -6 0
vt 0 3
vt -6 3
vt 6 0
vt 0 0
vt 6 3
vt 0 3
vt -0.75 0
vt -0.875 0
vt -0.875 3
vt -0.75 3
vt -0.875 0
vt -1 0
vt -1 3
vt -0.875 3
vt -1 0
vt -0.875 0
vt -0.875 3
vt -1 3
vt -0.875 0
vt -0.75 0
vt -0.75 3
vt -0.875 3
vt 0 -0.75
vt 6 -0.75
vt 6 -0.875
vt 0 -0.875
vt 6 -0.875
vt 6 -1
vt 0 -1
vt 0 -0.875
vt 0 -1
vt 6 -1
vt 6 -0.875
vt 0 -0.875
vt 6 -0.875
vt 6 -0.75
vt 0 -0.75
vt 0 -0.875

g Cube (1)
usemtl Default_Prototype
f 3/3/3 4/4/4 2/2/2 1/1/1
f 7/7/7 8/8/8 6/6/6 5/5/5
f 12/12/12 11/11/11 10/10/10 9/9/9
f 16/16/16 15/15/15 14/14/14 13/13/13
f 17/17/17 20/20/20 19/19/19 18/18/18
f 21/21/21 24/24/24 23/23/23 22/22/22
f 26/26/26 25/25/25 28/28/28 27/27/27
f 29/29/29 32/32/32 31/31/31 30/30/30
f 33/33/33 36/36/36 35/35/35 34/34/34
f 40/40/40 39/39/39 38/38/38 37/37/37

